<svg width="242" height="141" viewBox="0 0 242 141" fill="none" xmlns="http://www.w3.org/2000/svg">
<path d="M13.4277 70.5566H2.00195L2.00195 0.830078L34.4727 0.830078V11.1816H13.4277V29.9805H33.3008V40.332H13.4277L13.4277 70.5566ZM51.123 52.3926H42.7734L41.1133 17.3828V0.830078H52.7344V17.3828L51.123 52.3926ZM52.6367 70.5566H41.1621V59.2773H52.6367V70.5566ZM72.5098 70.5566H61.084V0.830078L79.7852 0.830078C86.7839 0.830078 91.8457 2.06706 94.9707 4.54102C98.1283 7.01497 99.8372 11.1003 100.098 16.7969C100.326 19.4987 100.423 21.8099 100.391 23.7305C100.391 25.651 100.293 27.9134 100.098 30.5176C99.9349 34.1309 99.1048 37.0768 97.6074 39.3555C96.11 41.6016 93.8151 43.3105 90.7227 44.4824L102.1 70.5566H89.8926L79.834 46.4355H72.5098V70.5566ZM72.5098 11.1816V36.084H79.6387C82.7311 36.084 84.9772 35.6608 86.377 34.8145C87.7767 33.9681 88.5417 32.7474 88.6719 31.1523C89.0951 26.1393 89.0951 21.1426 88.6719 16.1621C88.5417 14.5345 87.7767 13.2975 86.377 12.4512C84.9772 11.6048 82.7799 11.1816 79.7852 11.1816H72.5098ZM127.588 71.3379C120.394 71.3379 115.218 70.0846 112.061 67.5781C108.903 65.0391 107.243 60.8398 107.08 54.9805C106.852 48.7956 106.738 42.3665 106.738 35.6934C106.738 28.9876 106.852 22.5423 107.08 16.3574C107.243 10.5306 108.903 6.34766 112.061 3.80859C115.218 1.26953 120.394 0 127.588 0C134.814 0 139.99 1.26953 143.115 3.80859C146.273 6.34766 147.933 10.5306 148.096 16.3574C148.324 22.6074 148.438 29.069 148.438 35.7422C148.438 42.3828 148.324 48.7956 148.096 54.9805C147.933 60.8398 146.273 65.0391 143.115 67.5781C139.99 70.0846 134.814 71.3379 127.588 71.3379ZM127.588 61.7676C130.778 61.7676 133.073 61.377 134.473 60.5957C135.872 59.8145 136.605 58.6751 136.67 57.1777C136.93 52.8809 137.093 48.2259 137.158 43.2129C137.223 38.1673 137.207 33.1217 137.109 28.0762C137.044 23.0306 136.898 18.3919 136.67 14.1602C136.605 12.6302 135.856 11.4909 134.424 10.7422C132.992 9.96094 130.713 9.57031 127.588 9.57031C124.495 9.57031 122.233 9.96094 120.801 10.7422C119.368 11.4909 118.604 12.6302 118.506 14.1602C118.245 18.3919 118.083 23.0306 118.018 28.0762C117.952 33.1217 117.969 38.1673 118.066 43.2129C118.164 48.2259 118.311 52.8809 118.506 57.1777C118.604 58.6751 119.368 59.8145 120.801 60.5957C122.233 61.377 124.495 61.7676 127.588 61.7676ZM174.414 71.3379C167.253 71.3379 162.126 70.0846 159.033 67.5781C155.941 65.0391 154.264 60.8236 154.004 54.9316C153.743 51.5462 153.825 48.0794 154.248 44.5312H165.186C164.99 46.7773 164.876 48.9746 164.844 51.123C164.844 53.2715 164.958 55.2734 165.186 57.1289C165.348 58.6263 166.13 59.7819 167.529 60.5957C168.962 61.377 171.24 61.7676 174.365 61.7676C177.458 61.7676 179.671 61.377 181.006 60.5957C182.373 59.7819 183.154 58.6263 183.35 57.1289C183.577 55.4362 183.675 53.8411 183.643 52.3438C183.61 50.8138 183.512 49.2025 183.35 47.5098C183.187 46.11 182.666 44.873 181.787 43.7988C180.908 42.7246 179.167 42.0085 176.562 41.6504L168.457 39.9414C164.616 39.1927 161.654 38.1185 159.57 36.7188C157.52 35.319 156.071 33.5612 155.225 31.4453C154.378 29.3294 153.89 26.8392 153.76 23.9746C153.695 22.6074 153.662 21.3053 153.662 20.0684C153.695 18.8314 153.743 17.5944 153.809 16.3574C154.004 10.5306 155.648 6.34766 158.74 3.80859C161.833 1.26953 167.041 0 174.365 0C181.266 0 186.263 1.26953 189.355 3.80859C192.448 6.34766 194.108 10.5306 194.336 16.3574C194.434 17.6595 194.45 19.2708 194.385 21.1914C194.352 23.0794 194.287 24.8861 194.189 26.6113H183.154C183.447 22.347 183.48 18.1966 183.252 14.1602C182.992 11.1003 180.013 9.57031 174.316 9.57031C171.224 9.57031 168.994 9.96094 167.627 10.7422C166.26 11.5234 165.479 12.6628 165.283 14.1602C165.055 15.7878 164.941 17.4316 164.941 19.0918C164.974 20.7194 165.088 22.347 165.283 23.9746C165.446 25.4069 165.967 26.6439 166.846 27.6855C167.725 28.6947 169.548 29.3783 172.314 29.7363L179.785 31.1523C183.757 31.8685 186.8 32.959 188.916 34.4238C191.032 35.8887 192.513 37.7116 193.359 39.8926C194.238 42.041 194.743 44.5801 194.873 47.5098C194.971 48.8118 195.003 50.0651 194.971 51.2695C194.938 52.474 194.873 53.6947 194.775 54.9316C194.515 60.8236 192.822 65.0391 189.697 67.5781C186.605 70.0846 181.51 71.3379 174.414 71.3379ZM212.061 70.5566H200.635V0.830078H212.061V29.9805H229.785V0.830078L241.211 0.830078V70.5566H229.785V40.332H212.061V70.5566ZM24.8535 140.557H6.05469L0 70.8301H11.5234L13.5742 101.689L14.8926 130.205H17.041L17.1875 101.689L22.4609 71.3184H37.4512L42.7246 101.689L42.8223 130.205H45.0195L46.3379 101.689L48.3887 70.8301H59.8633L53.8574 140.557H35.0098L32.0801 120.439L31.0059 81.2793H28.9062L27.7344 120.439L24.8535 140.557ZM98.9258 140.557H64.7949V70.8301H98.9258V81.1816H76.2207V99.9805H97.6074V110.332H76.2207V130.205H98.9258V140.557ZM138.477 140.557H104.346V70.8301H138.477V81.1816H115.771V99.9805H137.158V110.332H115.771V130.205H138.477V140.557ZM155.615 140.557H143.896V70.8301H156.055L155.908 87.6758L154.004 103.643H156.348L162.451 87.3828L169.287 70.8301H181.836L168.262 99.9316L182.861 140.557H171.143L160.693 113.018L155.615 123.32V140.557Z" fill="#6E1E8C"/>
</svg>
